<svg viewBox="0 0 79.1031 63.9976" xmlns="http://www.w3.org/2000/svg" xmlns:xlink="http://www.w3.org/1999/xlink" width="79.103127" height="63.997559" fill="none" customFrame="#000000">
	<g id="LOGO">
		<path id="OM" d="M15.3474 55.192C12.8034 55.192 10.5114 54.64 8.47141 53.536C6.43141 52.408 4.82341 50.86 3.64741 48.892C2.49541 46.924 1.91941 44.728 1.91941 42.304C1.91941 39.88 2.49541 37.684 3.64741 35.716C4.82341 33.748 6.43141 32.212 8.47141 31.108C10.5114 29.98 12.8034 29.416 15.3474 29.416C17.8674 29.416 20.1474 29.98 22.1874 31.108C24.2274 32.212 25.8234 33.748 26.9754 35.716C28.1274 37.66 28.7034 39.856 28.7034 42.304C28.7034 44.752 28.1274 46.96 26.9754 48.928C25.8234 50.872 24.2274 52.408 22.1874 53.536C20.1474 54.64 17.8674 55.192 15.3474 55.192ZM15.3474 51.988C17.1954 51.988 18.8514 51.568 20.3154 50.728C21.8034 49.888 22.9674 48.736 23.8074 47.272C24.6714 45.784 25.1034 44.128 25.1034 42.304C25.1034 40.48 24.6714 38.836 23.8074 37.372C22.9674 35.884 21.8034 34.72 20.3154 33.88C18.8514 33.04 17.1954 32.62 15.3474 32.62C13.4994 32.62 11.8194 33.04 10.3074 33.88C8.81941 34.72 7.64341 35.884 6.77941 37.372C5.93941 38.836 5.51941 40.48 5.51941 42.304C5.51941 44.128 5.93941 45.784 6.77941 47.272C7.64341 48.736 8.81941 49.888 10.3074 50.728C11.8194 51.568 13.4994 51.988 15.3474 51.988ZM57.5698 54.904L57.5338 36.544L48.4258 51.844L46.7698 51.844L37.6618 36.652L37.6618 54.904L34.2058 54.904L34.2058 29.704L37.1578 29.704L47.6698 47.416L58.0378 29.704L60.9898 29.704L61.0258 54.904L57.5698 54.904Z" fill="rgb(255,255,255)" fill-rule="nonzero" />
		<g id="Group">
			<g id="Group">
				<path id="Vector" d="M24.0004 23.6347L23.0733 22.4836C22.9447 22.3239 22.7417 22.2544 22.5484 22.3036C22.0466 22.4316 21.5279 22.525 21.0065 22.5813C17.1417 22.9988 13.5805 21.621 10.7076 18.5979C7.84886 15.5899 7.6239 12.6018 7.31261 8.4662C7.29034 8.17037 7.26771 7.86956 7.24359 7.56338C7.24086 7.52845 7.23983 7.4843 7.23859 7.43755C7.2355 7.31453 7.23163 7.16147 7.19668 6.98937C7.14931 6.75554 7.08286 6.52264 6.9992 6.29711C6.82642 5.83119 6.85817 5.30377 7.08652 4.85006L8.59227 1.85762C8.65753 1.72787 8.67113 1.57633 8.6301 1.43612C8.58917 1.29591 8.49691 1.17854 8.3736 1.10993L6.49688 0.0644069C6.24043 -0.0785681 5.92218 0.0244867 5.78625 0.294436L4.3419 3.16484C4.18375 3.4791 3.89127 3.7094 3.53941 3.79667C3.00213 3.92983 2.56089 4.24464 2.26346 4.70697C-1.49783 10.5522 -0.529205 17.424 4.85453 23.0889C7.17807 25.5337 10.3195 27.1449 13.7 27.6256C14.3805 27.7223 15.0536 27.7706 15.7162 27.7706C16.6399 27.7706 17.5433 27.6766 18.4174 27.4891C19.9799 27.1538 21.3703 26.5347 22.55 25.649C23.0561 25.2689 23.5343 24.8432 23.9711 24.3836C24.1646 24.18 24.1773 23.8543 24.0004 23.6347ZM6.4695 1.30096L7.41699 1.82881L6.41894 3.81235L6.05187 3.57624L5.50243 3.22287L6.4695 1.30096ZM15.7232 26.6688C12.1339 26.6686 8.29603 25.1454 5.598 22.3065C0.598749 17.0461 -0.322347 10.6987 3.13415 5.32709C3.31977 5.03854 3.58817 4.92111 3.7806 4.87343C4.23787 4.75996 4.64329 4.50998 4.94768 4.16274L5.96439 4.81665C5.77944 5.43215 5.79578 6.09583 6.01965 6.69919C6.0827 6.86923 6.13275 7.04453 6.16837 7.22026C6.18306 7.29262 6.18502 7.37322 6.18739 7.46656C6.18888 7.52655 6.19043 7.58849 6.19558 7.65429C6.2195 7.95938 6.24213 8.25895 6.2643 8.55352C6.581 12.7608 6.83121 16.0838 9.96394 19.3802C11.534 21.0323 13.3133 22.2376 15.2524 22.9628C17.0115 23.6206 18.8693 23.8729 20.7799 23.7138L20.7997 23.7484L20.9057 23.9333C19.598 24.4905 18.2269 24.7632 16.8539 24.7631C13.8371 24.7629 10.8142 23.4501 8.45515 20.9678C4.78195 17.1028 3.28487 12.6997 4.23968 8.56931C4.30834 8.27245 4.13524 7.97332 3.85308 7.90108C3.57096 7.82878 3.28667 8.01097 3.21801 8.30787C2.17315 12.8278 3.76895 17.6017 7.71164 21.7502C9.63543 23.7744 11.9997 25.1161 14.5489 25.6301C15.3231 25.7862 16.0988 25.8638 16.8684 25.8638C18.4477 25.8637 20.0002 25.5364 21.455 24.892L21.5361 25.0334C19.875 26.1379 17.8426 26.6689 15.7232 26.6688ZM22.3934 24.3869L22.2725 24.1759L21.9234 23.5668C22.1095 23.5339 22.2945 23.4967 22.4778 23.4554L22.8778 23.952C22.7209 24.1019 22.5593 24.2471 22.3934 24.3869Z" fill="rgb(255,255,255)" fill-rule="nonzero" transform="matrix(0.827586,-0.561339,0.561339,0.827586,43.5488,13.542)" />
			</g>
		</g>
	</g>
</svg>
