<svg viewBox="0 0 50 50" xmlns="http://www.w3.org/2000/svg" xmlns:xlink="http://www.w3.org/1999/xlink" width="50.000000" height="50.000000" fill="none">
	<rect id="speaker copy" width="50.000000" height="50.000000" x="0.000000" y="0.000000" fill="rgb(255,255,255)" fill-opacity="0" />
	<path id="Shape" d="M0.557434 30.3224L0.557434 18.8799L19.5945 18.8799L31.6087 8.92603L31.6087 39.9835L19.6696 30.3224L7.09576 30.3224L7.09576 40.1306L5.46156 40.1306L5.46156 30.3224L0.557434 30.3224ZM29.973 12.4029L20.6369 20.1385L20.6354 20.1401L20.1816 20.5156L10.3642 20.5156L10.3642 28.6882L20.2475 28.6882L29.973 36.5572L29.973 12.4029ZM2.19317 28.6866L2.19317 20.5141L8.73149 20.5141L8.73149 28.6866L2.19317 28.6866Z" fill="rgb(51,51,51)" fill-rule="evenodd" />
	<path id="Shape" d="M42.9209 10.3669L41.745 11.5428C45.5699 14.5368 48.0427 19.1849 48.0427 24.4079C48.0427 29.7704 45.435 34.5243 41.4338 37.506L42.6173 38.6895C46.9082 35.4042 49.6784 30.2303 49.6784 24.4079C49.6784 18.7265 47.0386 13.6614 42.9224 10.3669L42.9209 10.3669Z" fill="rgb(51,51,51)" fill-rule="evenodd" />
	<path id="Shape" d="M37.6687 15.6367L36.4806 16.8248C39.004 18.4191 40.6888 21.2246 40.6888 24.424C40.6888 27.7644 38.8538 30.6787 36.1418 32.2286L37.333 33.4197C40.327 31.5403 42.3245 28.2197 42.3245 24.424C42.3245 20.7693 40.4788 17.5484 37.6703 15.6367L37.6687 15.6367Z" fill="rgb(51,51,51)" fill-rule="evenodd" />
</svg>
