<?xml version="1.0" encoding="UTF-8"?>
<svg xmlns="http://www.w3.org/2000/svg" xmlns:xlink="http://www.w3.org/1999/xlink" width="16px" height="16px" viewBox="0 0 16 16" version="1.1">
<g id="surface1">
<path style=" stroke:none;fill-rule:nonzero;fill:rgb(0%,0%,0%);fill-opacity:1;" d="M 9.65625 7.3125 C 9.703125 7.554688 9.734375 7.796875 9.734375 8.113281 C 9.734375 10.859375 7.894531 12.800781 5.125 12.800781 C 2.472656 12.800781 0.324219 10.652344 0.324219 8 C 0.324219 5.347656 2.472656 3.199219 5.125 3.199219 C 6.421875 3.199219 7.503906 3.671875 8.339844 4.457031 L 7.039062 5.707031 C 6.683594 5.367188 6.0625 4.96875 5.125 4.96875 C 3.488281 4.96875 2.152344 6.324219 2.152344 8 C 2.152344 9.675781 3.488281 11.03125 5.125 11.03125 C 7.023438 11.03125 7.738281 9.664062 7.851562 8.960938 L 5.125 8.960938 L 5.125 7.3125 Z M 14.292969 7.472656 L 14.292969 6.078125 L 12.890625 6.078125 L 12.890625 7.472656 L 11.5 7.472656 L 11.5 8.871094 L 12.890625 8.871094 L 12.890625 10.265625 L 14.292969 10.265625 L 14.292969 8.871094 L 15.683594 8.871094 L 15.683594 7.472656 Z M 14.292969 7.472656 "/>
</g>
</svg>
