<?xml version="1.0" encoding="UTF-8"?>
<svg xmlns="http://www.w3.org/2000/svg" xmlns:xlink="http://www.w3.org/1999/xlink" width="15px" height="16px" viewBox="0 0 15 15" version="1.1">
<g id="surface1">
<path style=" stroke:none;fill-rule:nonzero;fill:rgb(0%,0%,0%);fill-opacity:1;" d="M 4.601562 12 L 2.421875 12 L 2.421875 4.988281 L 4.601562 4.988281 Z M 3.511719 4.035156 C 2.816406 4.035156 2.25 3.457031 2.25 2.761719 C 2.25 2.425781 2.382812 2.105469 2.621094 1.871094 C 2.855469 1.632812 3.179688 1.5 3.511719 1.5 C 3.84375 1.5 4.164062 1.632812 4.402344 1.871094 C 4.636719 2.105469 4.773438 2.429688 4.773438 2.761719 C 4.773438 3.457031 4.207031 4.035156 3.511719 4.035156 Z M 12.746094 12 L 10.574219 12 L 10.574219 8.585938 C 10.574219 7.773438 10.558594 6.730469 9.441406 6.730469 C 8.3125 6.730469 8.136719 7.613281 8.136719 8.527344 L 8.136719 12 L 5.960938 12 L 5.960938 4.988281 L 8.050781 4.988281 L 8.050781 5.945312 L 8.082031 5.945312 C 8.371094 5.394531 9.082031 4.8125 10.140625 4.8125 C 12.34375 4.8125 12.75 6.265625 12.75 8.148438 L 12.75 12 Z M 12.746094 12 "/>
</g>
</svg>
