<?xml version="1.0" encoding="UTF-8"?>
<svg xmlns="http://www.w3.org/2000/svg" xmlns:xlink="http://www.w3.org/1999/xlink" width="12px" height="16px" viewBox="0 0 12 16" version="1.1">
<g id="surface1">
<path style=" stroke:none;fill-rule:nonzero;fill:rgb(0%,0%,0%);fill-opacity:1;" d="M 6.226562 1.761719 C 4.300781 1.761719 2.398438 3.472656 2.398438 6.238281 C 2.398438 8 3.140625 9 3.59375 9 C 3.777344 9 3.886719 8.308594 3.886719 8.113281 C 3.886719 7.882812 3.441406 7.386719 3.441406 6.421875 C 3.441406 4.410156 4.589844 2.984375 6.074219 2.984375 C 7.351562 2.984375 8.296875 3.953125 8.296875 5.730469 C 8.296875 7.058594 7.894531 9.546875 6.601562 9.546875 C 6.136719 9.546875 5.734375 9.097656 5.734375 8.453125 C 5.734375 7.507812 6.230469 6.59375 6.230469 5.617188 C 6.230469 3.960938 4.46875 4.261719 4.46875 6.261719 C 4.46875 6.683594 4.507812 7.148438 4.648438 7.53125 C 4.390625 9.015625 3.863281 11.226562 3.863281 12.757812 C 3.863281 13.230469 3.914062 13.695312 3.945312 14.167969 C 4.011719 14.261719 3.980469 14.253906 4.078125 14.203125 C 5.019531 12.480469 4.988281 12.140625 5.414062 9.886719 C 5.644531 10.46875 6.242188 10.785156 6.714844 10.785156 C 8.707031 10.785156 9.601562 8.199219 9.601562 5.863281 C 9.601562 3.382812 7.992188 1.761719 6.226562 1.761719 Z M 6.226562 1.761719 "/>
</g>
</svg>
